<svg xmlns="http://www.w3.org/2000/svg" width="1000" height="620" viewBox="0 0 1000 620" role="img" aria-labelledby="title description">
<title id="title">Training audio duration distribution</title>
<desc id="description">Histogram of 5567 training audio clip durations. The vertical axis shows the probability that a clip falls in each duration bin.</desc>
<rect width="100%" height="100%" fill="white"/>
<style>text{font-family:system-ui,-apple-system,sans-serif;fill:#162033}.title{font-size:22px;font-weight:650}.axis{font-size:13px}.tick{font-size:12px;fill:#536077}.bar{fill:#2d7ff9}.grid{stroke:#dce3ee;stroke-width:1}.axis-line{stroke:#4d5a70;stroke-width:1.2}</style>
<text class="title" x="94" y="28">Training audio duration distribution</text>
<line class="axis-line" x1="94" y1="528" x2="968" y2="528"/>
<line class="axis-line" x1="94" y1="34" x2="94" y2="528"/>
<line class="grid" x1="94" y1="528.0" x2="968" y2="528.0"/>
<text class="tick" x="84" y="532.0" text-anchor="end">0%</text>
<line class="grid" x1="94" y1="429.2" x2="968" y2="429.2"/>
<text class="tick" x="84" y="433.2" text-anchor="end">2%</text>
<line class="grid" x1="94" y1="330.4" x2="968" y2="330.4"/>
<text class="tick" x="84" y="334.4" text-anchor="end">4%</text>
<line class="grid" x1="94" y1="231.6" x2="968" y2="231.6"/>
<text class="tick" x="84" y="235.6" text-anchor="end">6%</text>
<line class="grid" x1="94" y1="132.8" x2="968" y2="132.8"/>
<text class="tick" x="84" y="136.8" text-anchor="end">8%</text>
<line class="grid" x1="94" y1="34.0" x2="968" y2="34.0"/>
<text class="tick" x="84" y="38.0" text-anchor="end">10%</text>
<rect class="bar" x="95.00" y="481.86" width="19.85" height="46.14"><title>0.30–0.79 seconds: 52 clips (0.9%)</title></rect>
<rect class="bar" x="116.85" y="471.21" width="19.85" height="56.79"><title>0.79–1.28 seconds: 64 clips (1.1%)</title></rect>
<rect class="bar" x="138.70" y="468.55" width="19.85" height="59.45"><title>1.28–1.76 seconds: 67 clips (1.2%)</title></rect>
<rect class="bar" x="160.55" y="471.21" width="19.85" height="56.79"><title>1.76–2.25 seconds: 64 clips (1.1%)</title></rect>
<rect class="bar" x="182.40" y="464.11" width="19.85" height="63.89"><title>2.25–2.73 seconds: 72 clips (1.3%)</title></rect>
<rect class="bar" x="204.25" y="458.78" width="19.85" height="69.22"><title>2.73–3.22 seconds: 78 clips (1.4%)</title></rect>
<rect class="bar" x="226.10" y="451.69" width="19.85" height="76.31"><title>3.22–3.71 seconds: 86 clips (1.5%)</title></rect>
<rect class="bar" x="247.95" y="469.43" width="19.85" height="58.57"><title>3.71–4.19 seconds: 66 clips (1.2%)</title></rect>
<rect class="bar" x="269.80" y="454.35" width="19.85" height="73.65"><title>4.19–4.68 seconds: 83 clips (1.5%)</title></rect>
<rect class="bar" x="291.65" y="470.32" width="19.85" height="57.68"><title>4.68–5.17 seconds: 65 clips (1.2%)</title></rect>
<rect class="bar" x="313.50" y="446.36" width="19.85" height="81.64"><title>5.17–5.65 seconds: 92 clips (1.7%)</title></rect>
<rect class="bar" x="335.35" y="450.80" width="19.85" height="77.20"><title>5.65–6.14 seconds: 87 clips (1.6%)</title></rect>
<rect class="bar" x="357.20" y="463.22" width="19.85" height="64.78"><title>6.14–6.62 seconds: 73 clips (1.3%)</title></rect>
<rect class="bar" x="379.05" y="451.69" width="19.85" height="76.31"><title>6.62–7.11 seconds: 86 clips (1.5%)</title></rect>
<rect class="bar" x="400.90" y="452.57" width="19.85" height="75.43"><title>7.11–7.60 seconds: 85 clips (1.5%)</title></rect>
<rect class="bar" x="422.75" y="456.12" width="19.85" height="71.88"><title>7.60–8.08 seconds: 81 clips (1.5%)</title></rect>
<rect class="bar" x="444.60" y="465.88" width="19.85" height="62.12"><title>8.08–8.57 seconds: 70 clips (1.3%)</title></rect>
<rect class="bar" x="466.45" y="444.59" width="19.85" height="83.41"><title>8.57–9.06 seconds: 94 clips (1.7%)</title></rect>
<rect class="bar" x="488.30" y="443.70" width="19.85" height="84.30"><title>9.06–9.54 seconds: 95 clips (1.7%)</title></rect>
<rect class="bar" x="510.15" y="413.53" width="19.85" height="114.47"><title>9.54–10.03 seconds: 129 clips (2.3%)</title></rect>
<rect class="bar" x="532.00" y="411.75" width="19.85" height="116.25"><title>10.03–10.51 seconds: 131 clips (2.4%)</title></rect>
<rect class="bar" x="553.85" y="375.37" width="19.85" height="152.63"><title>10.51–11.00 seconds: 172 clips (3.1%)</title></rect>
<rect class="bar" x="575.70" y="407.32" width="19.85" height="120.68"><title>11.00–11.49 seconds: 136 clips (2.4%)</title></rect>
<rect class="bar" x="597.55" y="373.60" width="19.85" height="154.40"><title>11.49–11.97 seconds: 174 clips (3.1%)</title></rect>
<rect class="bar" x="619.40" y="362.95" width="19.85" height="165.05"><title>11.97–12.46 seconds: 186 clips (3.3%)</title></rect>
<rect class="bar" x="641.25" y="320.35" width="19.85" height="207.65"><title>12.46–12.95 seconds: 234 clips (4.2%)</title></rect>
<rect class="bar" x="663.10" y="322.13" width="19.85" height="205.87"><title>12.95–13.43 seconds: 232 clips (4.2%)</title></rect>
<rect class="bar" x="684.95" y="332.78" width="19.85" height="195.22"><title>13.43–13.92 seconds: 220 clips (4.0%)</title></rect>
<rect class="bar" x="706.80" y="284.86" width="19.85" height="243.14"><title>13.92–14.40 seconds: 274 clips (4.9%)</title></rect>
<rect class="bar" x="728.65" y="263.56" width="19.85" height="264.44"><title>14.40–14.89 seconds: 298 clips (5.4%)</title></rect>
<rect class="bar" x="750.50" y="243.15" width="19.85" height="284.85"><title>14.89–15.38 seconds: 321 clips (5.8%)</title></rect>
<rect class="bar" x="772.35" y="244.93" width="19.85" height="283.07"><title>15.38–15.86 seconds: 319 clips (5.7%)</title></rect>
<rect class="bar" x="794.20" y="254.69" width="19.85" height="273.31"><title>15.86–16.35 seconds: 308 clips (5.5%)</title></rect>
<rect class="bar" x="816.05" y="272.44" width="19.85" height="255.56"><title>16.35–16.83 seconds: 288 clips (5.2%)</title></rect>
<rect class="bar" x="837.90" y="305.27" width="19.85" height="222.73"><title>16.83–17.32 seconds: 251 clips (4.5%)</title></rect>
<rect class="bar" x="859.75" y="349.64" width="19.85" height="178.36"><title>17.32–17.81 seconds: 201 clips (3.6%)</title></rect>
<rect class="bar" x="881.60" y="412.64" width="19.85" height="115.36"><title>17.81–18.29 seconds: 130 clips (2.3%)</title></rect>
<rect class="bar" x="903.45" y="460.56" width="19.85" height="67.44"><title>18.29–18.78 seconds: 76 clips (1.4%)</title></rect>
<rect class="bar" x="925.30" y="511.14" width="19.85" height="16.86"><title>18.78–19.27 seconds: 19 clips (0.3%)</title></rect>
<rect class="bar" x="947.15" y="520.90" width="19.85" height="7.10"><title>19.27–19.75 seconds: 8 clips (0.1%)</title></rect>
<text class="tick" x="94.0" y="551" text-anchor="middle">0.3</text>
<text class="tick" x="268.8" y="551" text-anchor="middle">4.2</text>
<text class="tick" x="443.6" y="551" text-anchor="middle">8.1</text>
<text class="tick" x="618.4" y="551" text-anchor="middle">12.0</text>
<text class="tick" x="793.2" y="551" text-anchor="middle">15.9</text>
<text class="tick" x="968.0" y="551" text-anchor="middle">19.8</text>
<text class="axis" x="531.0" y="594" text-anchor="middle">Audio duration (seconds)</text>
<text class="axis" x="18" y="281.0" text-anchor="middle" transform="rotate(-90 18 281.0)">Probability of clip</text>
<text class="axis" x="94" y="615">5,567 clips · mean 12.01s · median 13.31s · range 0.30–19.75s</text>
</svg>